<svg width="40" height="45" viewBox="0 0 40 45" fill="none" xmlns="http://www.w3.org/2000/svg">
<path d="M39.6333 0.975464L36.1107 40.4384L20.2761 44.8282L4.48513 40.4446L0.966187 0.975464H39.6333Z" fill="#264DE4"/>
<path d="M33.0948 37.9256L36.1052 4.20276H20.2997V41.4729L33.0948 37.9256Z" fill="#2965F1"/>
<path d="M9.03357 18.8414L9.46743 23.6821H20.3V18.8414H9.03357Z" fill="#EBEBEB"/>
<path d="M20.2991 9.04333H20.2824H8.16089L8.60093 13.8841H20.2991V9.04333Z" fill="#EBEBEB"/>
<path d="M20.3002 36.4496V31.4132L20.279 31.4188L14.8879 29.9631L14.5432 26.1024H11.9235H9.6839L10.3621 33.703L20.2779 36.4558L20.3002 36.4496Z" fill="#EBEBEB"/>
<path d="M26.2438 23.6818L25.6819 29.9598L20.283 31.417V36.4532L30.2067 33.7028L30.2795 32.885L31.417 20.141L31.5351 18.8411L32.409 9.04333H20.283V13.8841H27.104L26.6636 18.8411H20.283V23.6818H26.2438Z" fill="white"/>
</svg>
