<svg width="30" height="45" viewBox="0 0 30 45" fill="none" xmlns="http://www.w3.org/2000/svg">
<path d="M7.87948 44.8283C11.9139 44.8283 15.1883 41.5539 15.1883 37.5195V30.2107H7.87948C3.84502 30.2107 0.570679 33.485 0.570679 37.5195C0.570679 41.5539 3.84502 44.8283 7.87948 44.8283Z" fill="#0ACF83"/>
<path d="M0.570679 22.9017C0.570679 18.8672 3.84502 15.5929 7.87948 15.5929H15.1883V30.2105H7.87948C3.84502 30.2105 0.570679 26.9361 0.570679 22.9017Z" fill="#A259FF"/>
<path d="M0.570679 8.28426C0.570679 4.2498 3.84502 0.975464 7.87948 0.975464H15.1883V15.5931H7.87948C3.84502 15.5931 0.570679 12.3187 0.570679 8.28426Z" fill="#F24E1E"/>
<path d="M15.1873 0.975464H22.4961C26.5305 0.975464 29.8049 4.2498 29.8049 8.28426C29.8049 12.3187 26.5305 15.5931 22.4961 15.5931H15.1873V0.975464Z" fill="#FF7262"/>
<path d="M29.8049 22.9017C29.8049 26.9361 26.5305 30.2105 22.4961 30.2105C18.4616 30.2105 15.1873 26.9361 15.1873 22.9017C15.1873 18.8672 18.4616 15.5929 22.4961 15.5929C26.5305 15.5929 29.8049 18.8672 29.8049 22.9017Z" fill="#1ABCFE"/>
</svg>
